<?xml version="1.0" encoding="utf-8"?>
<!-- Generator: Adobe Illustrator 27.5.0, SVG Export Plug-In . SVG Version: 6.00 Build 0)  -->
<svg version="1.1" id="Layer_1" xmlns="http://www.w3.org/2000/svg" xmlns:xlink="http://www.w3.org/1999/xlink" x="0px" y="0px"
	 viewBox="0 0 5000 5000" style="enable-background:new 0 0 5000 5000;" xml:space="preserve">
<rect style="fill:#1B896A;" width="5000" height="5000"/>
<g>
	<g>
		<path style="fill:#18664E;" d="M3722.51,1665.885c18.896,0,34.269-15.411,34.269-34.355c0-18.929-15.373-34.329-34.269-34.329
			c-18.945,0-34.359,15.4-34.359,34.329C3688.15,1650.474,3703.564,1665.885,3722.51,1665.885z"/>
		<path style="fill:#18664E;" d="M822,79.892v1315.431c-29,4.512-58.106,12.626-85.715,24.304
			c-43.213,18.278-82.033,44.438-115.35,77.755c-33.316,33.316-59.485,72.121-77.763,115.334
			c-18.931,44.754-28.532,92.279-28.532,141.254c0,48.975,9.596,96.5,28.525,141.254c18.278,43.213,44.437,82.017,77.754,115.334
			c33.316,33.316,72.151,59.477,115.365,77.754c27.609,11.678,56.714,19.792,85.714,24.304v55.708
			c0,59.276,11.513,116.875,34.282,171.198c21.976,52.429,53.436,99.657,93.538,140.37c40.067,40.677,86.772,72.57,138.834,95.363
			c53.865,23.58,111.134,35.744,170.224,36.744h-0.002c1.592,0,24.004,0.309,452.869,0.309c2.044,0.432,4.14,0.774,6.267,0.741
			c1.172-0.021,2.144-0.022,2.775-0.069c172.776,0.309,313.214,141.037,313.214,313.885v64.147c-2,8.548-3.446,16.595-3.8,23.914
			c-0.249,1.499-0.2,3.026-0.2,4.568v1246.89c-2,5.43-1.403,11.194,0.478,16.525c1.12,5.165,3.595,9.795,7.14,13.459L2387,4906.191
			v0.003l0.729,0.9c4.977,8.65,14.354,13.905,24.332,13.905c0.008,0,0.014,0,0.021,0c9.971,0,19.198-5.233,24.183-13.868
			c0,0,358.734-616.267,358.734-630.16V3023.123c0-1.155-0.031-2.334-0.031-3.528c0-1.657-0.017-3.076-0.179-4.271
			c-0.646-14.584-4.79-28.774-10.79-42.41v-547.312c0-172.846,140.221-313.502,312.998-313.811c0.625,0.048,1.487,0.12,2.651,0.141
			c2.122,0.034,4.422-0.165,6.47-0.599c581.954,0,611.881-0.011,613.881-0.021v0.001c58-0.992,116.112-13.451,169.977-37.032
			c52.062-22.793,98.65-54.974,138.716-95.65c40.103-40.712,71.298-87.939,93.274-140.37
			c22.769-54.322,34.033-111.921,34.033-171.197v-239.352c33-4.846,66.217-13.927,97.549-27.179
			c47.457-20.072,90.18-48.801,126.768-85.389c36.588-36.588,65.371-79.202,85.445-126.658
			c20.786-49.147,31.354-101.337,31.354-155.122c0-53.784-10.513-105.974-31.298-155.121
			c-20.074-47.456-48.804-90.07-85.392-126.659c-36.589-36.588-79.421-65.317-126.878-85.39
			c-31.332-13.252-64.549-22.333-97.549-27.179V79.892c0-4.289-0.057-8.272-0.297-11.787c-0.111-1.613-0.158-66.71-0.202-68.105
			h-130.508c-0.002,0.481,0.009,64.694,0.031,65.179c0.099,2.099,0.333,4.125,0.474,6.214c0.211,3.078,0.502,5.92,0.502,8.498
			v561.602c-28,5.2-55.77,13.445-82.383,24.702c-47.457,20.073-90.115,48.802-126.705,85.39
			c-36.588,36.589-65.34,79.203-85.412,126.659c-20.787,49.147-31.338,101.337-31.338,155.121
			c0,53.784,10.533,105.975,31.32,155.122c20.072,47.456,48.799,90.069,85.387,126.658c36.588,36.588,79.294,65.317,126.75,85.389
			c26.613,11.257,54.381,19.502,82.381,24.703v241.828c0,169.441-137.855,310.087-307.244,313.614
			c-7.875,0.021-217.842,0.035-386.811,0.047c-196.832,0.014-231.582,0.018-232.247,0.026c-1.347,0.017-2.703,0.133-4.033,0.344
			l-0.507,0.08c-45.744,0.229-91.283,7.636-135.392,22.027c-43.996,14.366-85.38,35.494-123.003,62.797
			c-37.154,26.964-69.872,59.347-97.151,96.25c-38.53,52.125-64.612,110.839-77.612,173.052v-476.761
			c0-8.387-0.193-16.738-0.654-25.053c50.337-37.102,111.99-59.627,178.499-61.005c5.077-0.021,97.58-0.035,172.059-0.047
			c91.052-0.015,107.185-0.019,107.866-0.028c1.336-0.018,2.671-0.133,3.991-0.342l0.509-0.08
			c45.746-0.228,91.287-7.636,135.398-22.027c43.995-14.366,85.381-35.494,123.004-62.797
			c37.155-26.964,69.826-59.347,97.104-96.251c20.782-28.115,37.959-58.151,51.407-89.613c-2.116,9.061,0.338,18.974,7.381,26.055
			l24.355,24.408c-3.724,7.507-6.914,15.241-9.56,23.241h-34.473c-15.414,0-27.888,12.659-27.888,28.073v57.058
			c0,15.415,12.474,27.869,27.888,27.869h34.514c2.642,8,5.824,15.749,9.54,23.251l-24.348,24.42
			c-10.875,10.902-10.865,28.557,0.021,39.448l40.298,40.311c10.893,10.896,28.558,10.905,39.459,0.018l24.382-24.367
			c7.495,3.731,15.246,6.927,23.246,9.575v34.482c0,15.415,12.537,27.863,27.951,27.863h57.029c15.414,0,27.02-12.448,27.02-27.863
			v-34.547c9-2.651,16.232-5.844,23.727-9.568l24.55,24.309c10.889,10.881,28.644,10.891,39.544,0.023l40.465-40.281
			c5.249-5.232,8.229-12.338,8.233-19.75c0.005-7.412-2.927-14.521-8.169-19.76l-24.353-24.302
			c3.721-7.491,6.912-15.262,9.552-23.262h34.554c15.413,0,27.897-12.57,27.897-27.984v-56.999
			c0-15.414-12.484-28.017-27.897-28.017h-34.524c-2.631-8-5.814-15.737-9.537-23.224l24.385-24.425
			c10.885-10.913,10.86-28.57-0.052-39.455l-40.409-40.3c-10.906-10.877-28.563-10.861-39.451,0.035l-24.258,24.313
			c-7.486-3.724-15.256-6.911-23.256-9.552v-34.469c0-15.415-12.576-27.924-27.99-27.924h-57.059
			c-15.414,0-27.951,12.509-27.951,27.924v34.532c-8,2.645-15.758,5.833-23.233,9.551l-24.411-24.371
			c-10.902-10.879-28.548-10.873-39.44,0.016l-40.296,40.279c-1.539,1.539-3.115,3.217-4.222,4.988
			C3555.396,1440.83,3566,1385,3566,1327.556V774.967c62-12.165,119.343-42.405,165.046-88.108
			c60.718-60.718,94.287-141.446,94.287-227.313c0-85.868-33.371-166.597-94.089-227.315
			c-60.718-60.718-141.412-94.157-227.282-94.157c-85.868,0-166.579,33.439-227.298,94.157
			c-60.719,60.718-94.149,141.447-94.149,227.315c0,85.867,33.489,166.596,94.208,227.314
			C3321.057,731.193,3377,760.962,3436,773.812v553.745c0,172.847-140.501,313.504-313.278,313.813
			c-0.627-0.048-1.63-0.12-2.793-0.141c-2.126-0.04-4.244,0.241-6.293,0.674c-256.668,0-273.063,0.098-274.605,0.098h-0.015
			c-59.092,1-116.371,13.375-170.236,36.955c-12.662,5.543-25.004,11.615-37.016,18.255c-1.287-3.287-2.613-6.583-3.981-9.847
			c-21.976-52.43-53.453-99.667-93.554-140.378c-40.067-40.677-86.78-72.863-138.841-95.655
			c-33.37-14.608-68.047-24.947-103.655-30.936c31.735-114.111,127.081-203.193,244.982-225.373
			c10.345,5.306,20.909,10.244,31.687,14.802c58.211,24.62,120.029,37.104,183.739,37.104c63.708,0,125.527-12.484,183.737-37.104
			c56.211-23.775,106.687-57.805,150.027-101.146c43.339-43.34,77.37-93.816,101.145-150.026
			c24.621-58.21,37.105-120.029,37.105-183.738c0-63.71-12.484-125.528-37.105-183.739
			c-23.774-56.211-57.806-106.687-101.145-150.027c-43.341-43.341-93.816-77.371-150.027-101.146
			c-58.21-24.621-120.029-37.105-183.737-37.105c-63.71,0-125.528,12.484-183.739,37.105
			c-56.211,23.775-106.688,57.805-150.027,101.146s-77.37,93.817-101.146,150.027c-24.62,58.21-37.104,120.029-37.104,183.739
			c0,63.709,12.484,125.527,37.104,183.738c22.094,52.235,53.049,99.515,92.096,140.721c-49.178,22.564-93.447,53.61-131.66,92.403
			c-40.102,40.713-71.578,87.94-93.554,140.371c-11.17,26.65-19.632,54.09-25.36,82.129c-19.34-0.001-44.32-0.001-76.598-0.001
			c-2.045-0.432-4.151-0.639-6.274-0.598c-1.167,0.021-2.149,0.092-2.778,0.141c-89.823-0.161-170.898-38.267-228.056-99.095
			c48.185-15.389,92.339-42.145,129.136-78.941c60.718-60.718,94.156-141.446,94.156-227.313
			c0-85.869-33.438-166.597-94.156-227.315c-60.718-60.718-141.446-94.157-227.314-94.157c-85.868,0-166.597,33.439-227.315,94.157
			c-60.718,60.718-94.157,141.446-94.157,227.315c0,85.867,33.439,166.596,94.157,227.313
			c47.24,47.239,106.594,77.958,171.056,89.272c7.76,13.112,16.222,25.898,25.393,38.305c27.278,36.903,59.949,69.286,97.104,96.25
			c37.623,27.303,79.007,48.431,123.009,62.799c44.086,14.383,89.607,21.791,135.387,22.025l0.507,0.08
			c1.324,0.21,2.661,0.325,4.002,0.343c0.67,0.009,9.248,0.013,56.788,0.027c5.472,0.002,11.206,0.004,17.206,0.005v585.829
			c-17-7.632-33.178-14.285-50.353-19.893c-44.088-14.385-89.657-21.792-135.44-22.025l-0.54-0.082
			c-1.318-0.209-2.662-0.322-3.996-0.341c-0.685-0.009-15.546-0.013-99.354-0.028c-66.757-0.012-150.069-0.026-154.741-0.045
			C1536.19,2084.774,1398,1944.127,1398,1774.688V724.829c56-11.662,106.731-39.085,147.711-80.065
			c55.742-55.742,86.641-129.854,86.641-208.685c0-78.831-30.598-152.944-86.339-208.686
			c-55.742-55.742-129.805-86.441-208.636-86.441s-152.918,30.699-208.661,86.441s-86.427,129.855-86.427,208.686
			c0,78.831,31.114,152.943,86.856,208.685C1168.177,683.796,1216,710.528,1269,723.06v1051.627
			c0,59.276,11.135,116.876,33.904,171.197c21.976,52.43,53.247,99.657,93.349,140.37c40.065,40.676,86.618,72.857,138.68,95.649
			c53.865,23.581,111.067,36.041,170.067,37.031v-0.001c2,0.014,17.519,0.023,248.45,0.023c2.049,0.433,4.193,0.632,6.313,0.597
			c1.16-0.021,2.253-0.093,2.879-0.141c70.156,0.125,135.358,23.392,187.358,62.556v530.56c-15-53.304-38.47-103.654-72.001-149.018
			c-27.278-36.903-59.999-69.286-97.154-96.25c-37.624-27.304-79.034-48.432-123.035-62.8
			c-44.086-14.383-89.619-21.79-135.398-22.024l-0.512-0.08c-1.323-0.21-2.662-0.325-4.001-0.343
			c-0.677-0.01-26.888-0.014-175.27-0.028c-123.252-0.012-276.146-0.025-282.695-0.047C1090.547,2478.413,953,2337.767,953,2168.325
			v-59.26c22-4.757,44.506-11.667,65.983-20.751c43.214-18.278,81.908-44.438,115.224-77.754
			c33.315-33.317,59.421-72.121,77.699-115.334c18.93-44.755,28.5-92.28,28.5-141.254c0-48.975-9.611-96.5-28.541-141.254
			c-18.278-43.213-44.445-82.018-77.762-115.334c-33.316-33.317-71.903-59.477-115.117-77.755
			c-21.477-9.084-43.986-15.995-65.986-20.751V79.892c0-2.576-0.023-5.481,0.187-8.557c0.144-2.091,0.173-4.181,0.273-6.281
			c0.02-0.443,0.013-64.614,0.013-65.054H822.744c-0.063,1.425-0.148,66.606-0.26,68.22C822.243,71.738,822,75.599,822,79.892z
			 M3722.51,1597.201c18.896,0,34.269,15.4,34.269,34.329c0,18.944-15.373,34.355-34.269,34.355
			c-18.945,0-34.359-15.411-34.359-34.355C3688.15,1612.602,3703.564,1597.201,3722.51,1597.201z M2280,1551.246
			c118,24.302,212.639,115.676,241.884,231.49c-36.362,38.81-65.128,83.217-85.644,132.162
			c-22.769,54.322-34.24,111.921-34.24,171.197v384.703c-10-72.546-38.344-141.076-82.583-200.926
			c-12.053-16.305-24.417-31.725-39.417-46.187V1551.246z"/>
	</g>
	<path style="fill:#18664E;" d="M1542.924,1658c-15.414,0-27.924,12.302-27.924,27.717v56.629c0,15.414,12.51,27.654,27.924,27.654
		h34.102c2.599,8,5.726,15.565,9.366,22.932l-24.057,24.183c-10.875,10.902-10.865,28.583,0.021,39.473l39.991,40.023
		c10.894,10.898,28.558,10.914,39.46,0.025l24.23-24.074c7.362,3.657,14.961,6.797,22.961,9.403v34.07
		c0,15.415,12.256,27.965,27.671,27.965h56.603c15.415,0,27.726-12.55,27.726-27.965V1881.9c9-2.608,15.586-5.744,22.945-9.393
		l24.081,24.019c10.889,10.881,28.554,10.892,39.456,0.024l40.116-39.979c5.249-5.233,8.207-12.338,8.211-19.75
		c0.005-7.412-2.937-14.521-8.178-19.759l-24.068-24.12c3.646-7.356,6.775-14.942,9.372-22.942h34.141
		c15.414,0,27.925-12.355,27.925-27.77v-56.57c0-15.415-12.511-27.661-27.925-27.661h-34.111c-2.59-8-5.713-15.623-9.362-22.975
		l24.094-24.223c10.884-10.913,10.861-28.613-0.051-39.499l-40.105-40.02c-10.906-10.879-28.563-10.873-39.452,0.023l-24.113,24.019
		c-7.352-3.65-13.975-6.784-22.975-9.383v-34.058c0-15.415-12.284-27.885-27.698-27.885h-56.631
		c-15.415,0-27.671,12.47-27.671,27.885v34.119c-8,2.604-15.605,5.733-22.947,9.376l-24.192-24.082
		c-10.901-10.878-28.584-10.869-39.476,0.018l-40.006,39.977c-10.882,10.877-10.915,28.51-0.066,39.419l24.062,24.296
		c-3.65,7.374-6.785,14.992-9.388,22.992H1542.924z M1711.125,1713.96c0-18.671,15.203-33.86,33.89-33.86
		c18.639,0,33.803,15.189,33.803,33.86c0,18.685-15.164,33.886-33.803,33.886C1726.328,1747.846,1711.125,1732.645,1711.125,1713.96
		z"/>
	<path style="fill:#18664E;" d="M3221.97,1272.834l-30.078-30.002c-10.906-10.878-28.562-10.863-39.452,0.032l-14.627,14.538
		c-2.856-1.288-5.813-2.479-8.813-3.573v-20.592c0-15.414-12.298-28.236-27.712-28.236h-42.472
		c-15.414,0-28.816,12.822-28.816,28.236v20.644c-2,1.094-5.388,2.283-8.236,3.569l-14.396-14.592
		c-10.902-10.878-28.442-10.871-39.333,0.018l-29.935,29.982c-10.881,10.878-10.879,28.509-0.029,39.418l14.607,14.328
		c-1.292,2.869-2.472,5.397-3.57,8.397h-20.596c-15.414,0-27.512,13.192-27.512,28.606v42.47c0,15.414,12.098,27.924,27.512,27.924
		h20.634c1.091,3,2.278,5.814,3.562,8.661l-14.58,14.614c-10.873,10.901-10.863,28.548,0.022,39.438l29.991,30.002
		c10.89,10.897,28.556,10.905,39.46,0.018l14.153-14.585c2.854,1.289,6.246,2.482,8.246,3.579v20.611
		c0,15.414,13.402,27.661,28.816,27.661h42.45c15.413,0,27.733-12.247,27.733-27.661v-20.658c3-1.096,5.939-2.29,8.794-3.578
		l14.595,14.54c10.889,10.881,28.553,10.892,39.454,0.024l30.088-29.983c5.249-5.232,8.208-12.338,8.212-19.75
		s-2.938-14.521-8.181-19.759l-14.572-14.513c1.286-2.856,2.478-5.662,3.571-8.662h20.653c15.414,0,28.386-12.596,28.386-28.01
		v-42.426c0-15.415-12.972-28.564-28.386-28.564h-20.63c-1.092-3-2.281-5.525-3.567-8.38l14.604-14.481
		C3232.906,1301.226,3232.882,1283.719,3221.97,1272.834z M3098.445,1384.788c0,10.165-8.24,18.435-18.371,18.435
		c-10.168,0-18.439-8.27-18.439-18.435c0-10.155,8.271-18.417,18.439-18.417C3090.205,1366.371,3098.445,1374.633,3098.445,1384.788
		z"/>
	<path style="fill:#18664E;" d="M981.803,1078h13.412c0.118,1,0.238,0.578,0.358,0.868l-9.497,9.518
		c-10.875,10.902-10.865,28.551,0.022,39.441l24.54,24.546c10.894,10.897,28.558,10.904,39.46,0.016l9.755-9.495
		c0.298,0.124,1.146,0.248,1.146,0.37v13.393c0,15.414,11.999,27.343,27.414,27.343h34.731c15.414,0,27.855-11.929,27.855-27.343
		v-13.43c1-0.123,0.627-0.245,0.927-0.37l9.479,9.458c10.889,10.881,28.538,10.891,39.439,0.023l24.61-24.531
		c5.249-5.233,8.203-12.338,8.207-19.75c0.005-7.412-2.938-14.521-8.181-19.759l-9.483-9.438c0.124-0.3,0.248,0.138,0.37-0.862
		h13.422c15.414,0,27.211-12.575,27.211-27.989V1015.3c0-15.414-11.797-28.3-27.211-28.3h-13.401c-0.123,0-0.246-0.408-0.37-0.708
		l9.518-9.446c10.884-10.914,10.86-28.535-0.053-39.419l-24.609-24.522c-10.906-10.878-28.563-10.852-39.452,0.044l-9.482,9.459
		c-0.3-0.125,0.061-0.243-0.939-0.365v-13.372c0-15.415-12.425-27.671-27.839-27.671h-34.747c-15.415,0-27.414,12.257-27.414,27.671
		v13.418c0,0.121-0.841,0.242-1.137,0.365l-9.647-9.504c-10.901-10.879-28.617-10.872-39.508,0.017l-24.571,24.53
		c-10.882,10.877-10.924,28.51-0.074,39.419l9.509,9.357c-0.13,0.312-0.266,0.727-0.393,0.727h-13.377
		C966.388,987,954,999.92,954,1015.334v34.747C954,1065.496,966.388,1078,981.803,1078z M1115.761,1032.665
		c0,5.519-4.466,10.008-9.956,10.008c-5.521,0-10.012-4.49-10.012-10.008c0-5.51,4.491-9.993,10.012-9.993
		C1111.295,1022.672,1115.761,1027.155,1115.761,1032.665z"/>
</g>
<g>
	<g>
		<path style="fill:#1B896A;" d="M3828.046,1602.155c18.896,0,34.269-15.411,34.269-34.354c0-18.93-15.373-34.329-34.269-34.329
			c-18.945,0-34.358,15.399-34.358,34.329C3793.688,1586.744,3809.101,1602.155,3828.046,1602.155z"/>
		<path style="fill:#FFFFFF;" d="M928,16.162v1315.431c-30,4.513-58.337,12.626-85.946,24.304
			c-43.214,18.278-82.15,44.438-115.466,77.755c-33.317,33.316-59.542,72.121-77.821,115.334
			c-18.93,44.754-28.561,92.279-28.561,141.254s9.582,96.5,28.512,141.254c18.278,43.213,44.43,82.017,77.747,115.334
			c33.316,33.316,72.38,59.477,115.593,77.754c27.609,11.678,55.943,19.792,85.943,24.304v55.708
			c0,59.275,11.281,116.875,34.05,171.197c21.975,52.43,53.32,99.657,93.422,140.37c40.066,40.677,86.713,72.436,138.775,95.228
			c53.865,23.58,111.076,35.609,170.166,36.609h-0.002c1.591,0,24.003,0.443,452.869,0.443c2.043,0.432,4.14,0.842,6.267,0.809
			c1.172-0.021,1.875,0.013,2.507-0.035c172.776,0.309,312.946,141.07,312.946,313.918v64.147c-2,8.549-3.446,16.596-3.8,23.915
			c-0.249,1.498-0.2,3.025-0.2,4.567v1246.89c-2,5.43-1.135,11.195,0.745,16.526c1.12,5.165,3.962,9.794,7.506,13.458L2493,4842.461
			v0.004l0.497,0.766c4.977,8.649,14.122,13.77,24.101,13.77c0.008,0,0.014,0,0.021,0c9.971,0,19.43-5.099,24.415-13.733
			c0,0,358.966-616.132,358.966-630.024V2959.394c0-1.155-0.262-2.334-0.262-3.528c0-1.657-0.402-3.076-0.563-4.271
			c-0.646-14.585-5.175-28.775-11.175-42.411v-547.311c0-172.846,140.489-313.502,313.266-313.811
			c0.627,0.048,1.622,0.119,2.786,0.141c2.122,0.035,4.221-0.165,6.269-0.598c581.954,0,611.68-0.012,613.68-0.022v0.001
			c59-0.992,116.381-13.451,170.246-37.032c52.061-22.792,98.783-54.973,138.849-95.65c40.103-40.712,71.098-87.94,93.073-140.37
			c22.769-54.322,33.832-111.921,33.832-171.197v-239.352c34-4.847,66.486-13.927,97.818-27.179
			c47.455-20.072,90.313-48.801,126.9-85.389c36.588-36.588,65.439-79.202,85.512-126.658
			c20.787-49.147,31.389-101.337,31.389-155.122c0-53.784-10.496-105.975-31.283-155.121
			c-20.072-47.456-48.794-90.07-85.382-126.658c-36.589-36.589-79.685-65.317-127.14-85.39
			c-31.332-13.252-63.814-22.333-97.814-27.18V16.162c0-4.289,0.213-8.272-0.029-11.787c-0.111-1.613,0.11-2.98,0.066-4.375
			h-130.508c-0.002,0.481,0.008,0.964,0.031,1.449c0.1,2.099,0.564,4.125,0.707,6.214c0.209,3.078,0.732,5.92,0.732,8.499v561.602
			c-29,5.2-56.001,13.445-82.614,24.703c-47.457,20.072-90.231,48.802-126.821,85.39c-36.588,36.588-65.398,79.202-85.471,126.658
			c-20.785,49.146-31.366,101.337-31.366,155.121c0,53.784,10.519,105.975,31.306,155.122
			c20.072,47.456,48.792,90.069,85.38,126.658c36.588,36.588,79.522,65.317,126.978,85.389
			c26.613,11.257,53.609,19.502,82.609,24.703v241.828c0,169.44-138.088,310.088-307.475,313.613
			c-7.875,0.021-217.959,0.036-386.927,0.047c-196.833,0.013-231.64,0.017-232.306,0.026c-1.348,0.017-2.731,0.133-4.062,0.344
			l-0.522,0.08c-45.744,0.229-91.29,7.636-135.398,22.026c-43.995,14.366-85.383,35.494-123.008,62.798
			c-37.154,26.963-69.642,59.347-96.921,96.25c-38.53,52.125-64.382,110.839-77.382,173.051v-476.761
			c0-8.387-0.425-16.738-0.886-25.053c50.336-37.101,111.874-59.627,178.382-61.005c5.078-0.021,97.522-0.035,172.001-0.047
			c91.052-0.015,107.157-0.019,107.837-0.028c1.336-0.018,2.657-0.132,3.978-0.342l0.502-0.08
			c45.746-0.228,91.284-7.636,135.394-22.027c43.996-14.366,85.38-35.494,123.004-62.797c37.154-26.964,69.824-59.347,97.103-96.251
			c20.782-28.115,37.958-58.151,51.407-89.613c-2.117,9.061,0.337,18.974,7.38,26.055l24.355,24.273
			c-3.724,7.507-6.914,15.106-9.56,23.106h-34.473c-15.414,0-27.424,12.929-27.424,28.343v57.058
			c0,15.415,12.01,27.599,27.424,27.599h34.514c2.642,8,5.824,15.884,9.54,23.386l-24.347,24.488
			c-10.876,10.902-10.866,28.591,0.021,39.481l40.297,40.329c10.893,10.896,28.558,10.913,39.459,0.026l24.113-24.363
			c7.496,3.731,14.979,6.932,22.979,9.58v34.482c0,15.415,13.073,27.593,28.486,27.593h57.031c15.414,0,27.482-12.178,27.482-27.593
			v-34.547c8-2.651,16.001-5.844,23.494-9.568l24.434,24.309c10.891,10.881,28.586,10.891,39.486,0.024l40.438-40.282
			c5.248-5.232,8.214-12.338,8.218-19.75c0.005-7.412-2.934-14.521-8.177-19.76l-24.355-24.438
			c3.721-7.491,6.908-15.396,9.548-23.396h34.554c15.414,0,28.361-12.3,28.361-27.714v-56.999c0-15.414-12.947-28.287-28.361-28.287
			h-34.524c-2.632-8-5.813-15.603-9.536-23.089l24.384-24.357c10.885-10.913,10.86-28.536-0.052-39.421l-40.409-40.283
			c-10.906-10.877-28.563-10.853-39.451,0.043l-24.024,24.318c-7.488-3.724-16.025-6.907-23.025-9.548v-34.47
			c0-15.414-13.04-27.193-28.454-27.193h-57.06c-15.413,0-28.486,11.779-28.486,27.193v34.532c-8,2.645-15.488,5.833-22.965,9.551
			l-24.276-24.371c-10.902-10.879-28.481-10.873-39.374,0.016l-40.263,40.279c-1.539,1.539-2.868,3.216-3.974,4.987
			c20.998-52.088,31.852-107.919,31.852-165.362V711.237c62-12.164,119.11-42.405,164.813-88.108
			c60.718-60.718,94.171-141.446,94.171-227.314c0-85.868-33.429-166.597-94.146-227.314
			c-60.719-60.718-141.442-94.157-227.312-94.157s-166.594,33.439-227.312,94.157c-60.719,60.718-94.157,141.446-94.157,227.314
			c0,85.867,33.718,166.596,94.437,227.314c44.334,44.334,99.505,74.103,159.505,86.952v553.745
			c0,172.848-140.732,313.504-313.51,313.813c-0.627-0.048-1.746-0.12-2.909-0.141c-2.126-0.04-4.302,0.106-6.351,0.539
			c-256.668,0-273.122-0.037-274.664-0.037h-0.015c-59.091,1-116.371,13.51-170.236,37.09
			c-12.662,5.543-25.004,11.682-37.015,18.323c-1.287-3.288-2.613-6.549-3.982-9.813c-21.977-52.431-53.453-99.65-93.554-140.363
			c-40.067-40.676-86.78-72.854-138.841-95.646c-33.37-14.608-68.048-24.942-103.655-30.931
			c31.735-114.111,127.08-203.192,244.981-225.372c10.346,5.306,20.909,10.245,31.687,14.803
			c58.211,24.62,120.03,37.105,183.739,37.105s125.527-12.484,183.737-37.105c56.211-23.775,106.687-57.805,150.027-101.146
			c43.339-43.339,77.37-93.816,101.145-150.026c24.621-58.21,37.105-120.029,37.105-183.738c0-63.71-12.484-125.528-37.105-183.739
			c-23.774-56.21-57.806-106.687-101.145-150.027c-43.341-43.341-93.816-77.371-150.027-101.146
			c-58.21-24.621-120.028-37.105-183.737-37.105s-125.528,12.484-183.739,37.105c-56.21,23.775-106.687,57.805-150.027,101.146
			c-43.34,43.34-77.37,93.817-101.145,150.027c-24.621,58.21-37.105,120.029-37.105,183.739c0,63.709,12.484,125.527,37.105,183.738
			c22.094,52.235,53.048,99.515,92.095,140.721c-49.177,22.563-93.447,53.609-131.659,92.403
			c-40.102,40.713-71.578,87.94-93.554,140.37c-11.17,26.65-19.632,54.09-25.361,82.129c-19.34-0.001-44.319-0.001-76.597-0.001
			c-2.045-0.432-4.152-0.639-6.275-0.598c-1.167,0.021-2.149,0.092-2.778,0.141c-89.823-0.16-170.898-38.266-228.056-99.095
			c48.186-15.388,92.339-42.145,129.136-78.941c60.718-60.718,94.156-141.446,94.156-227.314
			c0-85.869-33.438-166.597-94.156-227.315s-141.446-94.157-227.313-94.157c-85.869,0-166.597,33.438-227.315,94.157
			c-60.718,60.718-94.157,141.446-94.157,227.315c0,85.867,33.439,166.596,94.158,227.314
			c47.24,47.24,106.594,77.958,171.055,89.272c7.761,13.112,16.222,25.897,25.394,38.306c27.278,36.902,59.949,69.286,97.104,96.25
			c37.624,27.303,79.007,48.431,123.009,62.799c44.085,14.383,89.607,21.791,135.386,22.025l0.507,0.081
			c1.324,0.21,2.661,0.325,4.001,0.343c0.67,0.009,8.979,0.013,56.52,0.027c5.472,0.001,11.938,0.003,16.938,0.005v585.829
			c-16-7.633-32.91-14.285-50.084-19.893c-44.089-14.385-89.524-21.792-135.307-22.025l-0.472-0.081
			c-1.318-0.209-2.629-0.323-3.963-0.342c-0.684-0.009-15.529-0.013-99.336-0.028c-66.758-0.012-149.829-0.026-154.501-0.045
			C1641.95,2021.044,1504,1880.397,1504,1710.958V661.099c56-11.662,106.5-39.085,147.479-80.065
			c55.742-55.742,86.525-129.854,86.525-208.685c0-78.831-30.656-152.944-86.397-208.686s-129.834-86.441-208.665-86.441
			s-152.933,30.699-208.675,86.441s-86.435,129.855-86.435,208.686c0,78.831,30.842,152.943,86.584,208.685
			C1273.449,620.065,1321,646.798,1374,659.33v1051.627c0,59.276,11.403,116.875,34.172,171.197
			c21.976,52.43,53.381,99.658,93.483,140.37c40.066,40.677,86.917,72.857,138.979,95.649
			c53.865,23.581,111.366,36.04,170.366,37.031v-0.001c2,0.013,17.287,0.023,248.219,0.023c2.049,0.433,4.078,0.632,6.196,0.597
			c1.16-0.022,1.927-0.093,2.553-0.142c70.156,0.126,135.032,23.392,187.032,62.556v530.56
			c-14-53.305-38.202-103.655-71.733-149.018c-27.278-36.903-59.865-69.287-97.02-96.25
			c-37.623-27.304-78.966-48.432-122.967-62.801c-44.087-14.383-89.585-21.79-135.365-22.023l-0.496-0.081
			c-1.323-0.21-2.653-0.325-3.993-0.343c-0.677-0.01-26.883-0.014-175.265-0.028c-123.253-0.011-276.412-0.025-282.962-0.046
			C1195.813,2414.684,1058,2274.036,1058,2104.596v-59.261c23-4.757,44.774-11.667,66.251-20.751
			c43.213-18.278,82.042-44.438,115.357-77.754c33.316-33.317,59.489-72.121,77.767-115.334
			c18.93-44.755,28.534-92.279,28.534-141.254s-9.595-96.5-28.524-141.254c-18.278-43.213-44.437-82.018-77.753-115.334
			c-33.316-33.317-72.167-59.477-115.38-77.755c-21.478-9.084-43.251-15.995-66.251-20.751V16.162c0-2.576,0.246-5.481,0.456-8.557
			c0.143-2.091,0.307-4.181,0.407-6.281c0.021-0.443,0.146-0.884,0.146-1.324H928.28c-0.063,1.425,0.083,2.876-0.028,4.49
			C928.011,8.008,928,11.869,928,16.162z M3828.046,1533.472c18.896,0,34.269,15.399,34.269,34.329
			c0,18.943-15.373,34.354-34.269,34.354c-18.945,0-34.358-15.411-34.358-34.354
			C3793.688,1548.871,3809.101,1533.472,3828.046,1533.472z M2386,1487.516c118,24.302,212.406,115.676,241.651,231.49
			c-36.361,38.81-65.013,83.217-85.526,132.162c-22.77,54.322-34.125,111.921-34.125,171.197v384.703
			c-10-72.545-38.344-141.076-82.583-200.925c-12.052-16.306-25.417-31.725-39.417-46.187V1487.516z"/>
	</g>
	<path style="fill:#FFFFFF;" d="M1648.461,1594c-15.415,0-27.461,12.572-27.461,27.986v56.629c0,15.414,12.046,27.384,27.461,27.384
		h34.102c2.599,8,5.725,15.7,9.365,23.066l-24.057,24.25c-10.875,10.902-10.864,28.617,0.021,39.506l39.991,40.04
		c10.895,10.898,28.559,10.922,39.46,0.034l23.963-24.07c7.361,3.657,14.693,6.802,22.693,9.408v34.07
		c0,15.415,12.793,28.695,28.207,28.695h56.604c15.414,0,28.189-13.28,28.189-28.695v-34.135c8-2.608,15.354-5.743,22.713-9.393
		l23.965,24.019c10.889,10.881,28.496,10.892,39.398,0.024l40.087-39.979c5.249-5.233,8.192-12.338,8.197-19.75
		c0.004-7.412-2.944-14.52-8.187-19.759l-24.071-24.255c3.646-7.356,6.771-15.077,9.369-23.077h34.14
		c15.414,0,27.389-12.085,27.389-27.5v-56.57c0-15.415-11.975-27.931-27.389-27.931H2018.5c-2.589-8-5.713-15.487-9.361-22.841
		l24.094-24.155c10.884-10.914,10.86-28.58-0.052-39.465l-40.105-40.003c-10.906-10.879-28.563-10.864-39.451,0.032l-23.882,24.023
		c-7.352-3.65-14.743-6.78-22.743-9.379v-34.057c0-15.415-12.748-28.155-28.162-28.155h-56.631
		c-15.414,0-28.207,12.74-28.207,28.155v34.119c-8,2.603-15.336,5.733-22.679,9.376l-24.058-24.082
		c-10.902-10.878-28.517-10.869-39.409,0.018l-39.973,39.976c-10.881,10.878-10.898,28.51-0.049,39.419l24.07,24.161
		c-3.65,7.374-6.777,14.857-9.379,22.857H1648.461z M1816.661,1650.23c0-18.671,15.203-33.861,33.891-33.861
		c18.639,0,33.803,15.19,33.803,33.861c0,18.685-15.164,33.886-33.803,33.886C1831.864,1684.116,1816.661,1668.915,1816.661,1650.23
		z"/>
	<path style="fill:#FFFFFF;" d="M3327.506,1209.104l-30.078-30.002c-10.906-10.878-28.562-10.863-39.452,0.032l-14.896,14.538
		c-2.855-1.288-6.08-2.479-9.08-3.573v-20.592c0-15.414-11.762-27.506-27.176-27.506h-42.472c-15.414,0-28.353,12.092-28.353,27.506
		v20.644c-2,1.094-5.619,2.284-8.469,3.569l-14.513-14.592c-10.902-10.878-28.5-10.871-39.391,0.018l-29.963,29.981
		c-10.882,10.878-10.894,28.509-0.044,39.418l14.6,14.693c-1.291,2.869-2.479,5.763-3.577,8.763h-20.596
		c-15.413,0-28.048,12.462-28.048,27.876v42.47c0,15.414,12.635,27.654,28.048,27.654h20.634c1.092,3,2.279,5.949,3.562,8.796
		l-14.579,14.682c-10.874,10.901-10.863,28.582,0.021,39.472l29.991,30.02c10.89,10.897,28.556,10.913,39.46,0.026l14.385-14.582
		c2.855,1.29,6.479,2.487,8.479,3.584v20.611c0,15.414,12.938,27.391,28.353,27.391h42.45c15.414,0,27.197-11.977,27.197-27.391
		v-20.658c3-1.096,6.207-2.29,9.063-3.578l14.729,14.54c10.889,10.882,28.619,10.892,39.521,0.024l30.122-29.983
		c5.25-5.233,8.225-12.338,8.229-19.75s-2.93-14.52-8.172-19.759l-14.568-14.648c1.286-2.856,2.481-5.797,3.575-8.797h20.653
		c15.414,0,27.85-12.326,27.85-27.74v-42.426c0-15.414-12.436-27.834-27.85-27.834h-20.63c-1.091-3-2.28-5.89-3.567-8.745
		l14.604-14.663C3338.441,1237.678,3338.418,1219.989,3327.506,1209.104z M3203.982,1321.058c0,10.166-8.242,18.435-18.372,18.435
		c-10.167,0-18.439-8.27-18.439-18.435c0-10.156,8.272-18.417,18.439-18.417C3195.74,1302.641,3203.982,1310.902,3203.982,1321.058z
		"/>
	<path style="fill:#FFFFFF;" d="M1087.339,1014h13.412c0.119,1,0.238,0.712,0.358,1.002l-9.496,9.587
		c-10.875,10.902-10.865,28.584,0.022,39.475l24.54,24.563c10.894,10.897,28.557,10.913,39.46,0.024l9.487-9.49
		c0.298,0.125,0.878,0.252,0.878,0.374v13.393c0,15.414,12.536,27.073,27.95,27.073h34.731c15.414,0,27.319-11.659,27.319-27.073
		v-13.43c1-0.123,0.896-0.245,1.195-0.37l9.613,9.458c10.889,10.881,28.605,10.891,39.506,0.023l24.644-24.532
		c5.248-5.232,8.219-12.338,8.224-19.749c0.005-7.412-2.931-14.521-8.173-19.759l-9.479-9.573c0.124-0.3,0.252,0.003,0.374-0.997
		h13.421c15.415,0,27.675-12.305,27.675-27.719V951.57c0-15.414-12.261-27.57-27.675-27.57h-13.401c-0.123,0-0.246-0.773-0.37-1.073
		l9.518-9.629c10.884-10.913,10.86-28.625-0.052-39.51l-24.609-24.567c-10.906-10.878-28.563-10.875-39.452,0.021l-9.75,9.448
		c-0.301-0.125-0.208-0.254-1.208-0.376v-13.372c0-15.414-11.889-27.941-27.303-27.941h-34.748c-15.414,0-27.95,12.527-27.95,27.941
		v13.417c0,0.121-0.573,0.242-0.869,0.365l-9.513-9.504c-10.901-10.879-28.549-10.872-39.441,0.017l-24.537,24.53
		c-10.883,10.877-10.908,28.51-0.058,39.419l9.517,9.722c-0.13,0.312-0.257,1.092-0.384,1.092h-13.376
		c-15.414,0-28.339,12.19-28.339,27.604v34.747C1059,1001.766,1071.925,1014,1087.339,1014z M1221.297,968.935
		c0,5.519-4.466,10.008-9.956,10.008c-5.521,0-10.012-4.49-10.012-10.008c0-5.51,4.491-9.993,10.012-9.993
		C1216.832,958.942,1221.297,963.425,1221.297,968.935z"/>
</g>
<path style="fill:#D67A2B;" d="M2196.425,2073.626c-40.635-13.258-83.896-20.655-128.911-20.655c-0.02,0-0.039,0-0.057,0
	l-2.647-0.419c-1.443-0.02-252.249-0.037-253.69-0.073c-185.16-3.745-334.692-155.448-334.692-341.521V468.173
	c0-5.46,0.567-10.774,0.823-16.163h-74.803c-0.219,5.407-0.821,10.702-0.821,16.163v1242.784
	c0,227.293,183.078,412.544,409.493,416.342c0.75,0.018,181.389,0.018,253.69,0.018v0.602c0.911-0.017,1.787-0.146,2.704-0.146
	c188.427,0,341.723,153.296,341.723,341.723v711.589h74.802v-711.589C2484.038,2284.848,2363.143,2128.064,2196.425,2073.626z"/>
<path style="fill:#F9A42C;" d="M2972.658,1076.942c-40.633,13.258-83.895,20.655-128.911,20.655c-0.019,0-0.04,0-0.056,0
	l-2.648,0.42c-1.443,0.019-146.865,0.036-148.306,0.073c-185.159,3.744-334.694,155.448-334.694,341.521l0.002,1725.311
	c0,5.46,0.565,10.773,0.822,16.162h-74.801c-0.221-5.406-0.823-10.702-0.823-16.162V1439.611
	c0-227.293,183.079-412.544,409.495-416.343c0.748-0.017,76.009-0.017,148.306-0.017v-0.603c0.914,0.017,1.79,0.147,2.704,0.147
	c188.429,0,341.723-153.297,341.723-341.723v-101.1h74.804v101.1C3260.273,865.722,3139.377,1022.504,2972.658,1076.942z"/>
<path style="fill:#AA98B3;" d="M2050.304,1432.143c40.635,13.258,83.896,20.654,128.912,20.654c0.02,0,0.039,0,0.057,0l2.646,0.42
	c1.444,0.02,146.867,0.036,148.309,0.073c185.161,3.744,334.693,155.448,334.693,341.521l-0.003,1725.311
	c0,5.46-0.564,10.774-0.822,16.162h74.803c0.221-5.405,0.821-10.702,0.821-16.162V1794.811
	c0-227.292-183.078-412.543-409.492-416.342c-0.749-0.017-76.007-0.017-148.309-0.017v-0.603c-0.91,0.017-1.787,0.146-2.703,0.146
	c-188.427,0-341.723-153.296-341.723-341.722V775.682h-74.802v260.591C1762.691,1220.921,1883.587,1377.705,2050.304,1432.143z"/>
<path style="fill:#90CEA2;" d="M3356.541,1659.696c-40.634,13.258-83.895,20.654-128.911,20.654c-0.016,0-0.038,0-0.056,0
	l-2.646,0.42c-1.445,0.02-278.482,0.037-279.923,0.074c-185.158,3.744-334.692,155.448-334.692,341.521l0.001,1725.311
	c0,5.46,0.565,10.773,0.821,16.162h-74.802c-0.219-5.407-0.821-10.702-0.821-16.162V2022.365
	c0-227.293,183.076-412.543,409.493-416.342c0.747-0.017,207.622-0.017,279.923-0.017v-0.603c0.911,0.017,1.788,0.146,2.702,0.146
	c188.428,0,341.724-153.296,341.724-341.723V346.629h74.803v917.197C3644.156,1448.475,3523.262,1605.258,3356.541,1659.696z"/>
<path style="fill:#6FA4D7;" d="M1954.664,2467.265c-40.636-13.258-83.897-20.654-128.912-20.654c-0.019,0-0.039,0-0.056,0
	l-2.647-0.42c-1.443-0.02-456.729-0.036-458.171-0.073c-185.159-3.744-334.691-155.448-334.691-341.521V16.162
	c0-5.46,0.567-10.774,0.823-16.162h-74.803c-0.22,5.406-0.822,10.702-0.822,16.162v2088.434
	c0,227.293,183.079,412.544,409.494,416.344c0.75,0.016,385.871,0.016,458.171,0.016v0.603c0.911-0.017,1.788-0.146,2.704-0.146
	c188.427,0,341.723,153.296,341.723,341.723v711.588h74.803v-711.588C2242.277,2678.486,2121.381,2521.703,1954.664,2467.265z"/>
<path style="fill:#AA98B3;" d="M3073.964,1966.004c40.635-13.258,83.896-20.653,128.912-20.653c0.02,0,0.038,0,0.056,0l2.646-0.421
	c1.444-0.019,617.549-0.035,618.99-0.073c185.16-3.744,334.691-155.448,334.691-341.521V16.162c0-5.46-0.565-10.774-0.821-16.162
	h74.802c0.219,5.406,0.82,10.702,0.82,16.162v1587.173c0,227.293-183.077,412.544-409.492,416.343
	c-0.75,0.016-546.688,0.016-618.99,0.016v0.603c-0.908-0.016-1.787-0.146-2.702-0.146c-188.427,0-341.724,153.296-341.724,341.721
	v853.011h-74.803v-853.011C2786.35,2177.226,2907.247,2020.442,3073.964,1966.004z"/>
<ellipse transform="matrix(0.7071 -0.7071 0.7071 0.7071 -907.2535 1190.1776)" style="fill:#6FA4D7;" cx="983.045" cy="1690.241" rx="334.961" ry="334.961"/>
<ellipse transform="matrix(0.7071 -0.7071 0.7071 0.7071 159.3444 1129.387)" style="fill:#D67A2B;" cx="1442.963" cy="372.348" rx="267.216" ry="267.216"/>
<ellipse transform="matrix(0.7071 -0.7071 0.7071 0.7071 -125.4732 1586.5519)" style="fill:#AA98B3;" cx="1852.401" cy="944.735" rx="293.561" ry="293.562"/>
<ellipse transform="matrix(0.7071 -0.7071 0.7071 0.7071 334.1129 2228.9819)" style="fill:#ED9C21;" cx="2857.676" cy="711.181" rx="444.105" ry="444.106"/>
<ellipse transform="matrix(0.7071 -0.7071 0.7071 0.7071 777.3237 2668.2556)" style="fill:#90CEA2;" cx="3609.531" cy="395.815" rx="293.561" ry="293.561"/>
<ellipse transform="matrix(0.7071 -0.7071 0.7071 0.7071 545.7405 3256.8054)" style="fill:#AA98B3;" cx="4204.182" cy="969.636" rx="370.586" ry="370.587"/>
<path style="fill:#ED9C21;" d="M1974.234,1566.646l39.237-39.344l-40.105-40.004l-39.196,39.221
	c-16.386-11.17-35.162-18.886-55.332-22.767v-55.597h-56.631v55.625c-20.115,3.911-38.86,11.619-55.276,22.77l-39.308-39.225
	l-39.992,39.977l39.125,39.344c-11.006,16.311-18.787,35.056-22.714,55.341h-55.582v56.629h55.582
	c3.927,20.117,11.708,38.833,22.714,55.316l-39.125,39.226l39.992,40.007l39.279-39.226c16.39,11.093,35.162,18.887,55.305,22.797
	v55.569h56.604v-55.623c20.17-3.941,38.889-11.677,55.331-22.798l39.195,39.169l40.105-39.979l-39.253-39.223
	c11.163-16.43,18.859-35.176,22.742-55.352h55.681v-56.57h-55.681C1993.078,1601.676,1985.38,1583.013,1974.234,1566.646z
	 M1850.551,1712.026c-34.043,0-61.8-27.655-61.8-61.795c0-34.14,27.757-61.771,61.8-61.771c34.1,0,61.712,27.63,61.712,61.771
	C1912.264,1684.371,1884.677,1712.026,1850.551,1712.026z"/>
<g>
	<g>
		<g>
			<path style="fill:#FFFFFF;" d="M1042.539,1877.089c0,6.109-4.949,11.06-11.061,11.06h-102.44c-6.11,0-11.056-4.951-11.056-11.06
				l0,0c0-6.107,4.946-11.055,11.056-11.055h102.44C1037.59,1866.035,1042.539,1870.982,1042.539,1877.089L1042.539,1877.089z"/>
			<path style="fill:#FFFFFF;" d="M1042.539,1903.325c0,6.102-4.949,11.053-11.061,11.053h-102.44
				c-6.11,0-11.056-4.952-11.056-11.053l0,0c0-6.11,4.946-11.056,11.056-11.056h102.44
				C1037.59,1892.27,1042.539,1897.215,1042.539,1903.325L1042.539,1903.325z"/>
			<path style="fill:#FFFFFF;" d="M1015.729,1931.458c0,6.102-4.946,11.057-11.062,11.057h-48.822
				c-6.111,0-11.061-4.955-11.061-11.057l0,0c0-6.105,4.949-11.062,11.061-11.062h48.822
				C1010.783,1920.396,1015.729,1925.353,1015.729,1931.458L1015.729,1931.458z"/>
		</g>
		<g>
			<path style="fill:#FFFFFF;" d="M803.981,1671.156c0-5.731-4.647-10.385-10.386-10.385h-45.856
				c-5.736,0-10.387,4.654-10.387,10.385c0,5.733,4.651,10.384,10.387,10.384h45.856
				C799.334,1681.541,803.981,1676.89,803.981,1671.156z"/>
			<path style="fill:#FFFFFF;" d="M813.404,1755.496l-39.701,22.931c-4.975,2.867-6.675,9.217-3.805,14.184
				c2.866,4.969,9.217,6.67,14.182,3.796l39.715-22.922c4.965-2.869,6.671-9.22,3.8-14.188
				C824.734,1754.332,818.378,1752.628,813.404,1755.496z"/>
			<path style="fill:#FFFFFF;" d="M892.114,1823.827c-4.955-2.873-11.311-1.17-14.18,3.796l-22.93,39.717
				c-2.86,4.962-1.166,11.317,3.799,14.183c4.969,2.869,11.315,1.165,14.19-3.8l22.931-39.718
				C898.789,1833.037,897.09,1826.689,892.114,1823.827z"/>
			<path style="fill:#FFFFFF;" d="M1082.584,1827.623c-2.866-4.966-9.217-6.669-14.186-3.796c-4.96,2.866-6.675,9.209-3.8,14.178
				l22.932,39.718c2.869,4.965,9.216,6.669,14.186,3.8c4.959-2.866,6.674-9.22,3.8-14.183L1082.584,1827.623z"/>
			<path style="fill:#FFFFFF;" d="M1186.82,1778.426l-39.716-22.931c-4.964-2.866-11.311-1.164-14.182,3.801
				c-2.87,4.968-1.165,11.318,3.8,14.188l39.711,22.928c4.97,2.869,11.326,1.167,14.187-3.802
				C1193.485,1787.648,1191.789,1781.295,1186.82,1778.426z"/>
			<path style="fill:#FFFFFF;" d="M1212.784,1660.771h-45.861c-5.734,0-10.381,4.654-10.381,10.392
				c0,5.727,4.646,10.385,10.381,10.385h45.861c5.735,0,10.376-4.651,10.376-10.385
				C1223.161,1665.429,1218.519,1660.777,1212.784,1660.771z"/>
			<path style="fill:#FFFFFF;" d="M1147.104,1586.819l39.716-22.927c4.969-2.868,6.67-9.216,3.8-14.184
				c-2.861-4.966-9.217-6.67-14.187-3.802l-39.711,22.925c-4.965,2.872-6.67,9.221-3.8,14.187
				C1135.793,1587.988,1142.14,1589.689,1147.104,1586.819z"/>
			<path style="fill:#FFFFFF;" d="M1068.398,1518.497c4.969,2.867,11.32,1.164,14.186-3.801l22.931-39.718
				c2.875-4.961,1.159-11.312-3.795-14.181c-4.975-2.867-11.321-1.166-14.19,3.8l-22.932,39.714
				C1061.723,1509.274,1063.438,1515.629,1068.398,1518.497z"/>
			<path style="fill:#FFFFFF;" d="M980.264,1494.879c5.735,0,10.381-4.648,10.381-10.384v-45.858
				c0-5.736-4.646-10.383-10.381-10.383c-5.74,0.004-10.392,4.647-10.392,10.383v45.858
				C969.873,1490.23,974.524,1494.879,980.264,1494.879z"/>
			<path style="fill:#FFFFFF;" d="M877.934,1514.695c2.87,4.965,9.226,6.668,14.18,3.801c4.976-2.868,6.68-9.217,3.81-14.187
				l-22.931-39.708c-2.875-4.972-9.217-6.676-14.185-3.807c-4.965,2.871-6.664,9.222-3.804,14.183L877.934,1514.695z"/>
			<path style="fill:#FFFFFF;" d="M823.801,1568.833l-39.716-22.927c-4.97-2.872-11.321-1.174-14.187,3.796
				c-2.87,4.973-1.169,11.32,3.805,14.189l39.701,22.927c4.974,2.868,11.331,1.169,14.191-3.801
				C830.466,1578.052,828.765,1571.703,823.801,1568.833z"/>
			<path style="fill:#FFFFFF;" d="M1028.358,1859.598H925.688v-3.137c-4.783-3.26-7.805-8.718-7.805-14.758
				c0-19.059-19.131-48.458-30.436-62.825l-1.015-1.336c-26.228-31.1-41.881-71.879-41.881-109.125
				c0-73.5,60.875-133.297,135.702-133.297c74.83,0,135.699,59.8,135.699,133.303c0,36.369-15.141,76.526-40.52,107.521l-0.38,0.607
				c-0.39,0.738-0.912,1.523-1.558,2.345c-11.808,14.539-30.421,44.345-30.421,62.82c0,7.206-4.307,13.67-10.97,16.469l-1.358,0.57
				l-2.387,0.043V1859.598z M935.537,1844.287h77.51v-0.541l13.966-0.241c0.472-0.47,0.749-1.108,0.749-1.792
				c0-29.774,31.985-70.149,33.704-72.293l0.025-0.066l1.806-2.76c23.383-28.393,37.344-65.093,37.344-98.174
				c0-65.062-54.001-117.993-120.378-117.993c-66.395,0-120.402,52.929-120.402,117.987c0,33.798,14.352,70.956,38.393,99.395
				l0.252,0.316l1.055,1.39c5.547,7.049,33.631,44.161,33.631,72.186c0,1.375,1.039,2.26,2.002,2.5L935.537,1844.287z"/>
		</g>
	</g>
	<g>
		<path style="fill:#FFFFFF;" d="M1011.924,1668.052c-2.629-2.791-6.015-3.774-9.543-2.739c-7.152,2.085-12.535,6.639-16.397,12.286
			c-1.079-1.481-2.167-2.826-3.241-4c-7.776-8.477-13.705-8.5-17.316-7.044c-4.135,1.678-7.074,6.122-8.778,13.273
			c-3.573-4.447-7.776-7.858-12.144-6.071c-4.034,1.648-12.427,5.078-1.291,87.206c3.892,28.716,10.686,77.535,13.131,91.071h6.785
			c-13.024-70.328-23.812-166.899-16.27-172.045c0.024,0.003,2.287,0.25,7.588,8.2c0.265,0.391,0.514,0.778,0.77,1.162
			c-0.342,4.086-0.429,8.703-0.288,13.835c0.471,16.494,7.616,27.589,14.093,29.656c2.797,0.888,5.466,0.113,7.116-2.085
			c4.735-6.278-0.379-21.891-14.04-43.094c1.048-9.441,3.452-13.937,5.84-14.905c2.254-0.917,5.946,1.086,9.866,5.362
			c1.594,1.741,3.131,3.772,4.565,5.975c-3.814,8.55-4.946,18.204-4.021,25.453c1.42,11.162,6.872,12.528,9.155,12.599
			c4.539,0.142,8.002-1.87,9.736-5.649c3.514-7.669-0.978-21.747-7.238-32.661c3.202-5.649,7.897-10.247,14.248-12.098
			c0.945-0.274,1.739-0.218,2.808,0.902c14.383,15.269,0.842,147.748-9.034,179.394h6.934
			C1013.677,1819.75,1029.307,1686.497,1011.924,1668.052z M970.951,1726.451c-2.229-0.737-8.895-8.197-9.327-23.455
			c-0.039-1.167-0.058-2.296-0.063-3.384C971.422,1716.793,971.692,1724.611,970.951,1726.451z M991.157,1713.711
			c-0.434,0.95-1.214,1.827-3.453,1.748c-0.472-0.015-2.071-1.707-2.717-6.758c-0.64-4.993-0.12-11.112,1.662-16.959
			C990.809,1700.454,993.02,1709.652,991.157,1713.711z"/>
	</g>
</g>
<g>
	<path style="fill:#FFFFFF;" d="M3700.961,423.71l16.006,4.002l0.9-3.59l-16.69-4.176l4.368-76.863l-8.231-9.228
		c9.984-8.089,17.532-19.355,20.889-32.783c7.163-28.65-7.085-57.625-32.602-70.073l15.449-61.789
		c1.715-6.856-2.455-13.803-9.313-15.519c-0.226-0.055-0.452-0.055-0.678-0.098c-6.632-1.282-13.187,2.779-14.839,9.41
		l-15.447,61.786c-28.38-1.023-54.578,17.841-61.744,46.49c-3.355,13.425-1.996,26.918,3.002,38.753l-11.608,4.268l-32.318,69.879
		l-16.69-4.174l-0.897,3.592l16.009,4.002l-90.78,196.291c0,0,4.729,13.227,7.027,19.377c0.729,1.949,1.215,3.201,1.225,3.081
		c0,0,22.231-7.659,22.457-8.253l93.49-202.142l31.274,7.82l-3.313,13.252c-1.036,4.152,1.493,8.363,5.646,9.401
		c4.152,1.042,8.365-1.485,9.402-5.641l3.313-13.25l31.276,7.821l-12.646,222.351l15.935,17.853l1.163-1.041l16.689-14.89
		L3700.961,423.71z M3637.163,403.946l3.313-13.254c1.039-4.153-1.484-8.363-5.645-9.403c-4.148-1.039-8.362,1.489-9.401,5.642
		l-3.313,13.252l-30.592-7.65l27.479-59.414c3.252,2.746,6.806,5.172,10.631,7.218c0.893,6.322,5.502,11.785,12.079,13.428
		c6.58,1.644,13.213-1.004,16.979-6.165c4.344-0.002,8.622-0.471,12.781-1.364l-3.715,65.356L3637.163,403.946z M3635.432,335.538
		c1.403-5.626,7.128-9.063,12.755-7.654c5.624,1.406,9.062,7.13,7.655,12.755c-1.409,5.627-7.131,9.062-12.758,7.657
		C3637.458,346.89,3634.025,341.165,3635.432,335.538z M3661.331,341.92c-0.01,0.029-0.01,0.059-0.013,0.087
		c-0.134,0.533-0.298,1.051-0.479,1.555c0.181-0.504,0.34-1.022,0.479-1.555C3661.321,341.979,3661.321,341.948,3661.331,341.92z
		 M3661.094,333.428c-1.596-5.263-5.82-9.585-11.54-11.017c-5.72-1.429-11.478,0.396-15.364,4.287
		c-17.324-10.455-26.639-31.369-21.48-52c5.477-21.901,25.484-36.402,47.171-35.822c1.429,3.386,4.294,6.119,8.039,7.272
		c0.222,0.067,0.421,0.176,0.645,0.232c4.079,1.021,8.181-0.055,11.206-2.526c19.406,9.694,30.225,31.9,24.748,53.799
		C3699.366,318.286,3681.305,332.355,3661.094,333.428z"/>
</g>
<path style="fill:#FFFFFF;" d="M4374.325,933.958c-11.603-23.609-31.374-36.183-53.378-42.28
	c-35.887-9.895-77.729-2.473-100.048,3.04c0-0.122,0-0.243,0-0.364c1.678-22.184-1.719-39.224-6.927-52.178
	c-0.16-0.422-0.277-0.923-0.461-1.327c1.81-1.85,3.539-3.601,5.229-5.19c6.672,21.062,30.979,33.568,55.66,27.559
	c34.762-8.506,55.014-62.037,86.854-54.492c0,0-40.873-43.952-105.963-28.161c-22.994,5.57-38.744,24.397-38.34,44.532
	c14.318-12.17,33.189-21.822,54.973-26.835c24.44-5.709,48.133-4.583,67.609,1.735c-18.366-4.808-39.913-5.316-61.995-0.186
	c-18.243,4.247-34.438,11.669-47.638,21.104c0,0.019,0,0.019,0,0.019c-6.316,3.061-13.834,10.116-18.518,14.906
	c-0.027,0.021-0.065,0.061-0.08,0.079c-9.62-19.553-22.838-27.8-24.223-28.964c-6.479-5.473-16.158-4.685-21.667,1.77
	c-5.487,6.475-4.706,16.19,1.75,21.682c0.464,0.402,28.25,15.673,22.756,64.532v0.02c-5.976-1.492-13.519-3.138-21.948-4.565
	c-5.932-0.947-11.464-1.672-15.828-2.193c-40.838-4.426-94.103-0.125-116.629,45.757c-38.883,79.138-12.511,187.455,54.148,234.666
	c59.597,42.22,104.664,26.728,113.546,22.97c1.046-0.439,1.708-0.763,1.708-0.763s48.601,25.002,115.261-22.207
	C4386.845,1121.412,4413.209,1013.096,4374.325,933.958z M4361.133,1031.118c-0.684,4.625-1.084,9.291-2.171,13.897
	c-0.48,2.315-0.881,4.647-1.429,6.943l-1.831,6.839l-0.928,3.419l-1.122,3.319c-0.762,2.211-1.554,4.442-2.316,6.635
	c-0.783,2.213-1.811,4.325-2.692,6.478c-0.941,2.117-1.79,4.284-2.801,6.338c-1.059,2.052-2.109,4.081-3.191,6.094
	c-1.091,1.991-2.013,4.083-3.284,5.938c-1.182,1.886-2.373,3.777-3.533,5.669c-1.232,1.867-2.297,3.778-3.648,5.469
	c-2.592,3.521-5.029,7.02-7.604,10.28c-2.693,3.178-5.345,6.275-7.9,9.293c-2.676,2.956-5.431,5.61-8.01,8.284
	c-1.303,1.332-2.553,2.657-3.84,3.886c-1.345,1.186-2.636,2.373-3.926,3.519c-2.552,2.292-4.984,4.483-7.313,6.578
	c-2.396,1.99-4.75,3.802-6.924,5.532c-2.174,1.747-4.201,3.357-6.096,4.848c-1.909,1.468-3.758,2.654-5.374,3.82
	c-6.542,4.546-10.272,7.162-10.272,7.162l-0.893-1.269c0,0,3.443-2.914,9.48-8.023c1.488-1.309,3.197-2.654,4.945-4.264
	c1.733-1.63,3.623-3.379,5.615-5.272c1.973-1.866,4.143-3.82,6.334-5.974c2.111-2.236,4.347-4.566,6.639-7.021
	c1.145-1.208,2.334-2.476,3.539-3.741c1.145-1.289,2.252-2.696,3.443-4.063c2.273-2.816,4.747-5.612,7.059-8.648
	c2.258-3.08,4.571-6.255,6.912-9.498c2.256-3.317,4.349-6.814,6.604-10.316c1.149-1.708,2.053-3.601,3.059-5.448
	c0.984-1.854,1.99-3.707,2.979-5.572c1.084-1.835,1.787-3.844,2.736-5.775c0.859-1.972,1.762-3.925,2.632-5.875
	c0.843-1.989,1.513-4.063,2.272-6.096c0.705-2.031,1.568-4.022,2.176-6.116c0.563-2.089,1.164-4.183,1.768-6.274l0.865-3.138
	l0.662-3.197l1.291-6.375c0.342-2.137,0.561-4.265,0.821-6.42c0.664-4.265,0.62-8.589,0.864-12.811
	c0.061-2.113-0.039-4.224-0.059-6.318c-0.061-2.111-0.061-4.207-0.24-6.258c-0.164-2.072-0.321-4.122-0.4-6.173
	c-0.244-2.029-0.462-4.065-0.666-6.054c-0.121-1.005-0.199-2.012-0.279-3.014c-0.165-0.992-0.302-1.954-0.444-2.938
	c-0.343-1.975-0.544-3.925-0.829-5.837c-0.721-3.822-1.29-7.622-2.107-11.243c-1.496-7.305-3.4-14.142-5.273-20.457
	c-1.869-6.335-3.942-12.05-5.818-17.137c-1.001-2.495-1.863-4.907-2.805-7.063c-0.871-2.193-1.713-4.205-2.496-6.014
	c-0.81-1.79-1.512-3.397-2.132-4.786c-0.651-1.408-1.21-2.614-1.651-3.541c-0.924-1.932-1.41-2.956-1.41-2.956l1.207-0.944
	c0,0,3.581,3.057,8.693,9.353c2.594,3.117,5.471,7.14,8.625,11.886c1.512,2.393,3.095,4.969,4.631,7.763
	c0.763,1.388,1.591,2.837,2.373,4.307c0.743,1.508,1.502,3.055,2.313,4.626c2.996,6.338,5.932,13.439,8.203,21.204
	c1.293,3.86,2.156,7.966,3.14,12.145c0.44,2.076,0.787,4.225,1.129,6.378c0.159,1.089,0.339,2.17,0.499,3.26
	c0.123,1.087,0.26,2.214,0.36,3.294C4362.32,1012.533,4362.001,1021.824,4361.133,1031.118z"/>
<path style="fill:#6FA4D7;" d="M3278.369,1258.371l29.427-29.506l-30.078-30.002l-29.396,29.415
	c-12.289-8.378-26.371-14.163-41.498-17.075v-41.697h-42.472v41.718c-15.086,2.933-29.144,8.713-41.456,17.077l-29.48-29.417
	l-29.991,29.981l29.343,29.506c-8.254,12.234-14.091,26.292-17.035,41.505h-41.685v42.47h41.685
	c2.944,15.088,8.781,29.125,17.035,41.486l-29.343,29.419l29.991,30.004l29.459-29.418c12.293,8.32,26.37,14.165,41.478,17.098
	v41.676h42.45v-41.716c15.129-2.957,29.168-8.757,41.498-17.097l29.396,29.375l30.076-29.983l-29.438-29.417
	c8.371-12.321,14.144-26.381,17.056-41.512h41.76v-42.426h-41.76C3292.502,1284.644,3286.728,1270.647,3278.369,1258.371z
	 M3185.61,1367.403c-25.532,0-46.349-20.741-46.349-46.345c0-25.605,20.816-46.327,46.349-46.327
	c25.573,0,46.281,20.722,46.281,46.327C3231.892,1346.662,3211.203,1367.403,3185.61,1367.403z"/>
<path style="fill:#90CEA2;" d="M1287.233,917.648l24.075-24.142l-24.609-24.546l-24.05,24.065
	c-10.054-6.854-21.575-11.588-33.952-13.968v-34.115h-34.748v34.131c-12.343,2.4-23.844,7.13-33.917,13.972l-24.119-24.069
	l-24.54,24.53l24.008,24.142c-6.754,10.008-11.528,21.51-13.938,33.957h-34.105v34.747h34.105
	c2.41,12.344,7.184,23.828,13.938,33.942l-24.008,24.07l24.54,24.547l24.102-24.069c10.056,6.807,21.575,11.589,33.935,13.988
	v34.098h34.731v-34.13c12.376-2.418,23.863-7.165,33.951-13.988l24.052,24.034l24.607-24.532l-24.085-24.066
	c6.85-10.081,11.571-21.585,13.954-33.964h34.166V951.57h-34.166C1298.795,939.143,1294.072,927.69,1287.233,917.648z
	 M1211.342,1006.852c-20.89,0-37.921-16.97-37.921-37.918s17.032-37.902,37.921-37.902c20.923,0,37.865,16.954,37.865,37.902
	S1232.281,1006.852,1211.342,1006.852z"/>
<path style="fill:#D67A2B;" d="M3952.667,1483.583l39.533-39.642l-40.409-40.307l-39.494,39.518
	c-16.509-11.255-35.427-19.029-55.751-22.938v-56.021h-57.06v56.048c-20.267,3.94-39.154,11.707-55.695,22.943l-39.604-39.523
	l-40.297,40.279l39.424,39.642c-11.092,16.435-18.93,35.322-22.888,55.761h-56.003v57.058h56.003
	c3.958,20.271,11.796,39.128,22.888,55.736l-39.424,39.524l40.297,40.309l39.577-39.523c16.514,11.177,35.429,19.031,55.722,22.969
	v55.991h57.031v-56.045c20.323-3.972,39.187-11.765,55.75-22.969l39.496,39.465l40.409-40.281l-39.552-39.521
	c11.248-16.554,19-35.442,22.914-55.771h56.104v-56.999h-56.104C3971.652,1518.879,3963.896,1500.075,3952.667,1483.583z
	 M3828.046,1630.065c-34.302,0-62.269-27.866-62.269-62.264s27.967-62.239,62.269-62.239c34.356,0,62.179,27.841,62.179,62.239
	S3862.43,1630.065,3828.046,1630.065z"/>
<g>
	<path style="fill:#FFFFFF;" d="M1588.975,438.325h-96.365h-96.365c0,0.272-0.063,0.516-0.063,0.776
		c0,53.258,42.232,87.369,95.491,87.369c0.31,0,0.627-0.037,0.937-0.037c52.829-0.394,96.428-34.394,96.428-87.332
		C1589.039,438.841,1588.975,438.597,1588.975,438.325z"/>
</g>
<g>
	<path style="fill:#FFFFFF;" d="M1491.437,548.023c-69.918,0-120.667-46.728-120.667-111.108c0-0.432,0.03-0.854,0.077-1.279
		c0.574-51.782,34.469-91.984,89.032-106.346v-70.189c-10.172-0.457-18.305-8.875-18.305-19.158
		c0-10.574,8.602-19.176,19.175-19.176h63.562c10.575,0,19.179,8.602,19.179,19.176c0,10.276-8.125,18.692-18.291,19.157v70.19
		c54.589,14.371,88.489,54.605,89.031,106.353c0.049,0.442,0.077,0.852,0.077,1.271c0,63.83-51.186,110.54-121.708,111.063
		C1492.138,548.006,1491.784,548.023,1491.437,548.023z M1387.344,437.253c0.172,55.457,42.891,94.163,104.015,94.196
		c0.49-0.031,0.838-0.046,1.178-0.046c60.802-0.453,105.012-40.029,105.194-94.154c-0.046-0.425-0.073-0.829-0.073-1.249
		c-0.371-46.391-31.221-80.842-82.521-92.09l-6.512-1.428v-99.934h15.685c1.437,0,2.606-1.169,2.606-2.604
		c0-1.435-1.17-2.602-2.606-2.602h-63.562c-1.435,0-2.602,1.167-2.602,2.602c0,1.435,1.167,2.604,2.602,2.604h15.704v99.934
		l-6.513,1.428c-51.299,11.245-82.149,45.696-82.522,92.157C1387.417,436.443,1387.39,436.848,1387.344,437.253z"/>
	<g>
		<g>
			<polygon style="fill:#FFFFFF;" points="1370.024,270.929 1310.711,430.066 1288.772,438.962 1281.462,436.238 1270.697,415.152 
				1330.007,256.015 1322.019,252.564 1261.813,414.111 1276.959,443.775 1265.702,473.977 1270.715,475.845 1270.977,475.942 
				1275.989,477.811 1287.245,447.608 1318.112,435.093 1378.319,273.548 			"/>
			<g>
				<g>
					<g>
						<polygon style="fill:#FFFFFF;" points="1301.072,349.567 1276.841,414.585 1284.401,431.256 1289.811,433.272 
							1306.44,425.618 1330.67,360.599 						"/>
					</g>
				</g>
			</g>
			<g>
				<path style="fill:#FFFFFF;" d="M1380.357,257.425l10.459-28.066c5.077-13.618-1.85-28.777-15.474-33.854l-19.648,52.729
					L1380.357,257.425z"/>
				<path style="fill:#FFFFFF;" d="M1375.343,195.505c-13.619-5.076-28.776,1.852-33.852,15.468l-10.46,28.067l24.663,9.193
					L1375.343,195.505z"/>
				<path style="fill:#FFFFFF;" d="M1331.031,239.04l-8.783-3.271c-4.909-1.83-10.526,1.081-12.546,6.501
					c-2.021,5.424,0.32,11.301,5.229,13.129l33.446,12.467l2.688-7.216l4.629-12.418L1331.031,239.04z"/>
				<path style="fill:#FFFFFF;" d="M1389.143,260.7l-8.785-3.275l-24.663-9.191l-4.629,12.418l-2.688,7.216l33.447,12.464
					c4.907,1.829,10.522-1.083,12.544-6.505C1396.392,268.404,1394.048,262.527,1389.143,260.7z"/>
			</g>
		</g>
	</g>
</g>
<path style="fill:#FFFFFF;" d="M1885.727,881.051c0,0,47.838-48.491,4.892-91.423c-42.946-42.957-113.325-27.454-113.325-27.454
	s-122.199,30.991-124.856,154.954c-2.656,123.963,100.949,170.895,160.27,172.655c59.317,1.776,70.837-77.909,34.53-127.499
	C1810.931,912.696,1885.727,881.051,1885.727,881.051z M1667.493,905.912c0-13.944,11.3-25.246,25.233-25.246
	c13.947,0,25.247,11.302,25.247,25.246c0,13.944-11.3,25.246-25.247,25.246C1678.793,931.157,1667.493,919.856,1667.493,905.912z
	 M1707.675,1000.185c-13.934,0-25.236-11.3-25.236-25.245c0-13.935,11.302-25.236,25.236-25.236
	c13.944,0,25.248,11.301,25.248,25.236C1732.922,988.884,1721.619,1000.185,1707.675,1000.185z M1723.117,870.885
	c-13.933,0-25.234-11.303-25.234-25.245c0-13.947,11.301-25.248,25.234-25.248c13.944,0,25.247,11.301,25.247,25.248
	C1748.364,859.583,1737.062,870.885,1723.117,870.885z M1759.712,808.028c0-13.933,11.303-25.234,25.235-25.234
	c13.948,0,25.248,11.301,25.248,25.234c0,13.943-11.3,25.246-25.248,25.246C1771.015,833.274,1759.712,821.971,1759.712,808.028z
	 M1839.56,1022.858c0,21.626-15.458,39.156-34.522,39.156c-19.064,0-34.519-17.529-34.519-39.156
	c0-21.622,15.455-39.153,34.519-39.153C1824.102,983.705,1839.56,1001.236,1839.56,1022.858z M1828.738,820.393
	c0-13.934,11.303-25.235,25.237-25.235c13.945,0,25.246,11.301,25.246,25.235c0,13.945-11.301,25.248-25.246,25.248
	C1840.041,845.641,1828.738,834.338,1828.738,820.393z"/>
<g>
	<path style="fill:#FFFFFF;" d="M1968.445,1012.731c0.792,0,1.541,0.175,2.221,0.479c1.32-2.356,2.078-4.978,2.078-7.76v-20.988
		c0-10.044-9.671-18.206-21.599-18.206c-11.942,0-21.612,8.161-21.612,18.206v20.988c0,2.782,0.76,5.403,2.079,7.759
		c0.679-0.303,1.427-0.478,2.218-0.478H1968.445z"/>
	<path style="fill:#FFFFFF;" d="M1971.861,1022.433c-0.94,0.754-2.117,1.225-3.416,1.225h-17.3h-15.455h-1.86
		c-0.846,0-1.637-0.208-2.352-0.55c-4.346,4.828-9.88,15.357-5.484,35.852c4.492,20.901,14.816,17.001,31.732,45.12
		C1957.726,1104.079,1997.834,1055.912,1971.861,1022.433z"/>
	<path style="fill:#FFFFFF;" d="M1965.542,1019.001c-3.823,2.887-8.858,4.657-14.396,4.657h17.3c1.298,0,2.476-0.471,3.416-1.225
		c-0.92-1.184-1.915-2.353-3.004-3.499L1965.542,1019.001z"/>
	<path style="fill:#FFFFFF;" d="M1935.69,1023.658h15.455c-5.182,0-9.933-1.536-13.653-4.093l-1.766,0.036
		c0,0-1.96,0.962-4.249,3.507c0.715,0.342,1.506,0.55,2.352,0.55H1935.69z"/>
	<path style="fill:#FFFFFF;" d="M1937.492,1019.565c3.721,2.557,8.472,4.093,13.653,4.093c5.538,0,10.573-1.77,14.396-4.657
		L1937.492,1019.565z"/>
</g>
<path style="fill:#FFFFFF;" d="M1975.099,970.581l-3.536-179.613c0-10.526-8.538-19.065-19.065-19.065
	c-0.46,0-0.893,0.11-1.352,0.132c-0.46-0.022-0.896-0.132-1.353-0.132c-10.527,0-19.064,8.539-19.064,19.065l-3.539,179.613
	c0,0.155,0.059,0.313,0.073,0.456l-0.073,1.936c0,5.647,4.324,10.188,9.902,13.229c3.888,2.537,8.402,4.129,12.701,4.129
	c0.434,0,0.905-0.072,1.353-0.096c0.448,0.025,0.915,0.096,1.352,0.096c4.297,0,8.814-1.593,12.7-4.129
	c5.58-3.042,9.901-7.582,9.901-13.229l-0.074-1.936C1975.039,970.894,1975.099,970.736,1975.099,970.581z"/>
<path style="fill:#FFFFFA;" d="M3114.147,887.987l-156.396-137.511c-10.401-9.142-25.239-10.4-38.027-4.532l-75.468-66.357
	c51.924-72.084,41.592-173.207-26.531-233.089c-72.433-63.701-182.801-56.619-246.502,15.83
	c-63.685,72.437-56.592,182.805,15.849,246.496c68.106,59.888,169.734,57.204,234.58-3.524l75.493,66.377
	c-4.18,13.432-1.069,27.974,9.332,37.116l156.4,137.512c14.572,12.818,37.877,10.15,52.044-5.949
	C3129.057,924.266,3128.723,900.808,3114.147,887.987z M2606.86,686.319c-60.011-52.755-65.876-144.172-13.121-204.199
	c52.771-60.019,144.2-65.886,204.205-13.122c60.009,52.761,65.887,144.191,13.116,204.205
	C2758.291,733.213,2666.862,739.08,2606.86,686.319z"/>
<path style="fill:#FFFFFA;" d="M2705.095,693.334c-28.552,0.002-55.386-9.16-78.452-26.932
	c-50.308-38.76-39.111-99.635-38.608-102.207c0.971-4.981,5.797-8.236,10.772-7.26c4.972,0.969,8.221,5.779,7.266,10.75
	c-0.405,2.139-9.378,52.45,31.783,84.163c57.734,44.483,120.84,10.943,121.471,10.6c4.45-2.427,10.033-0.791,12.464,3.666
	c2.429,4.453,0.788,10.034-3.666,12.462c-0.759,0.415-18.896,10.182-45.274,13.599
	C2716.871,692.949,2710.945,693.334,2705.095,693.334z"/>
<g>
	<g>
		<g>
			<path style="fill:#FFC918;" d="M2517.852,2794.639c-41.583,0-81.328,3.426-118.388,9.439v151.787v1186.119
				c38.071-5.301,77.569-8.157,118.155-8.157c40.593,0,80.108,2.856,118.175,8.157V2955.865v-151.886
				C2598.844,2798.043,2559.26,2794.639,2517.852,2794.639z"/>
			<path style="fill:#F3AF40;" d="M2872.125,2953.992c-2.033-69.388-100.058-128.084-236.331-150.013v151.886v1186.119
				c86.49,11.997,165.364,36.813,231.265,71.258h5.066V2955.865h0.222C2872.347,2955.225,2872.15,2954.632,2872.125,2953.992z"/>
		</g>
		<path style="fill:#F3AF40;" d="M2163.381,2955.546l-0.259,0.219v1257.478h5.063c65.902-34.445,144.79-59.261,231.278-71.258
			V2955.865v-151.787C2262.387,2826.206,2163.96,2885.564,2163.381,2955.546z"/>
		<g>
			<polygon style="fill:#165378;" points="2375.54,4582.598 2511.977,4818.928 2511.977,4582.598 			"/>
			<polygon style="fill:#1B6B82;" points="2649.545,4582.598 2511.977,4582.598 2511.977,4818.928 2512.545,4819.916 			"/>
		</g>
	</g>
	<g>
		<path style="fill:#E2D4BA;" d="M2168.107,4209.314l0.753,0.586h-6.697l175.006,303.109l40.106,69.463h18.561V4139.15
			C2310.675,4150.963,2233,4175.396,2168.107,4209.314z"/>
		<path style="fill:#E2D4BA;" d="M2856.255,4209.314c-64.892-33.918-142.555-58.352-227.718-70.164
			c-0.12-0.018-0.24-0.033-0.363-0.051v443.373h18.9l40.107-69.463l175.016-303.109L2856.255,4209.314z"/>
		<path style="fill:#F4E9D9;" d="M2512.177,4131.12c-39.963,0-78.854,2.812-116.341,8.03v443.322h232.338V4139.1
			C2590.802,4133.915,2552.02,4131.12,2512.177,4131.12z"/>
	</g>
</g>
</svg>
